# File created by Blade
# Date/Time:  Tue Jan 27 18:50:05 2015
# Frame Rate: 120.000 fps
#------------------------------------------------------
:FULLY-SPECIFIED
:DEGREES
1558
root -0.433774 31.605239 -6.493997 -2.718272 -8.754688 -16.847253
Spine 12.429709 -6.442366 3.789490
Head 6.756367 -17.610367 14.396121
LeftShoulder -15.350575 16.515837 16.027323
LeftArm 7.508553 -40.306888 -70.170568
LeftForeArm -5.126099 -0.000000 130.132029
LeftHand -21.141761 0.000000 21.509952
LeftHandThumb1 -26.253704 0.000000 33.147579
RightShoulder -14.391659 -4.090661 -4.606610
RightArm 13.840919 -27.689861 68.565645
RightForeArm -30.115630 -0.000000 25.565333
RightHand -14.250590 -0.000000 10.751905
RightHandThumb1 -24.326973 -0.000000 -32.862282
LeftUpLeg -5.661511 15.958593 5.038634
LeftLeg 28.935901 -0.000000 -0.000000
LeftFoot -39.980927 27.946089 -26.683941
LeftToeBase 7.405104 -0.000000 -0.000000
RightUpLeg -83.134645 -31.802353 5.954185
RightLeg 70.980831 -0.000000 -0.000000
RightFoot -3.702526 -21.889973 12.044625
RightToeBase 16.158705 -0.000000 -0.000000
1559
root -0.436065 31.611876 -6.497629 -2.675495 -8.734059 -16.780508
Spine 12.379143 -6.472856 3.678802
Head 6.854414 -17.629674 14.367305
LeftShoulder -15.341320 16.442179 16.043757
LeftArm 7.576811 -40.409881 -70.213485
LeftForeArm -4.995578 -0.000000 129.968126
LeftHand -21.129749 -0.000000 21.818197
LeftHandThumb1 -26.253704 0.000000 33.147579
RightShoulder -14.382593 -4.095708 -4.632713
RightArm 13.788461 -27.722295 68.605108
RightForeArm -29.978203 0.000000 25.515928
RightHand -14.191778 -0.000000 10.900403
RightHandThumb1 -24.326973 -0.000000 -32.862282
LeftUpLeg -5.676486 16.060020 4.980355
LeftLeg 28.827963 -0.000000 -0.000000
LeftFoot -39.821184 27.893231 -26.565558
LeftToeBase 7.359484 -0.000000 -0.000000
RightUpLeg -83.108146 -31.724765 6.271752
RightLeg 73.764750 -0.000000 -0.000000
RightFoot -3.581976 -21.752736 12.280431
RightToeBase 16.687184 -0.000000 -0.000000
1560
root -0.438579 31.617491 -6.503022 -2.608563 -8.708821 -16.733151
Spine 12.308711 -6.519001 3.599501
Head 6.935783 -17.622296 14.320394
LeftShoulder -15.341270 16.363523 16.042631
LeftArm 7.633908 -40.517843 -70.228267
LeftForeArm -4.870562 -0.000000 129.819328
LeftHand -21.155396 0.000000 21.740965
LeftHandThumb1 -26.253704 0.000000 33.147579
RightShoulder -14.350486 -4.001231 -4.706514
RightArm 13.603006 -27.795475 68.715103
RightForeArm -29.836690 0.000000 25.485723
RightHand -14.209235 -0.000000 10.898570
RightHandThumb1 -24.326973 -0.000000 -32.862282
LeftUpLeg -5.713157 16.097579 4.922842
LeftLeg 28.701842 -0.000000 -0.000000
LeftFoot -39.703458 27.916454 -26.473712
LeftToeBase 7.373828 -0.000000 -0.000000
RightUpLeg -83.038103 -31.631386 6.577292
RightLeg 76.448748 -0.000000 -0.000000
RightFoot -3.417533 -21.538478 12.393500
RightToeBase 17.342599 -0.000000 -0.000000
1561
root -0.439759 31.620989 -6.505703 -2.557654 -8.676619 -16.670634
Spine 12.247071 -6.583034 3.513053
Head 7.015182 -17.599075 14.240031
LeftShoulder -15.346708 16.306653 15.977765
LeftArm 7.706323 -40.630263 -70.169347
LeftForeArm -4.794352 -0.000000 129.719097
LeftHand -21.185570 -0.000000 21.607353
LeftHandThumb1 -26.253704 0.000000 33.147579
RightShoulder -14.344277 -4.004294 -4.783304
RightArm 13.542695 -27.841814 68.795463
RightForeArm -29.714521 -0.000000 25.452956
RightHand -14.049844 -0.000000 11.102980
RightHandThumb1 -24.326973 -0.000000 -32.862282
LeftUpLeg -5.731143 16.080506 4.838201
LeftLeg 28.577098 -0.000000 -0.000000
LeftFoot -39.654654 27.930503 -26.477108
LeftToeBase 7.330123 -0.000000 -0.000000
RightUpLeg -82.930089 -31.570301 6.848256
RightLeg 79.054537 -0.000000 -0.000000
RightFoot -3.203611 -21.221609 12.550707
RightToeBase 17.669136 -0.000000 -0.000000
1562
root -0.439100 31.623316 -6.509052 -2.491445 -8.626417 -16.584508
Spine 12.163384 -6.651080 3.405810
Head 7.082815 -17.560663 14.172078
LeftShoulder -15.358193 16.272386 15.965957
LeftArm 7.723306 -40.628405 -70.123399
LeftForeArm -4.751764 -0.000000 129.606523
LeftHand -21.162926 -0.000000 21.703858
LeftHandThumb1 -26.253704 0.000000 33.147579
RightShoulder -14.341867 -4.022349 -4.846111
RightArm 13.497494 -27.903388 68.851011
RightForeArm -29.720269 -0.000000 25.409453
RightHand -14.170793 -0.000000 11.009230
RightHandThumb1 -24.326973 -0.000000 -32.862282
LeftUpLeg -5.769795 16.011161 4.729621
LeftLeg 28.448244 -0.000000 -0.000000
LeftFoot -39.556965 27.983602 -26.381893
LeftToeBase 7.361135 -0.000000 -0.000000
RightUpLeg -82.855550 -31.537115 7.180231
RightLeg 81.566866 -0.000000 -0.000000
RightFoot -2.926330 -21.077397 12.489533
RightToeBase 17.892011 -0.000000 -0.000000
1563
root -0.435630 31.624654 -6.511948 -2.424280 -8.548223 -16.489242
Spine 12.077100 -6.739527 3.305305
Head 7.123805 -17.534099 14.080249
LeftShoulder -15.339681 16.242505 15.934697
LeftArm 7.700061 -40.638952 -70.053565
LeftForeArm -4.754092 -0.000000 129.522732
LeftHand -21.030954 0.000000 21.841803
LeftHandThumb1 -26.253704 0.000000 33.147579
RightShoulder -14.353097 -4.078801 -4.902134
RightArm 13.481456 -27.889660 68.900452
RightForeArm -29.726664 -0.000000 25.386170
RightHand -14.144129 -0.000000 11.125455
RightHandThumb1 -24.326973 -0.000000 -32.862282
LeftUpLeg -5.807673 15.903204 4.602283
LeftLeg 28.312008 -0.000000 -0.000000
LeftFoot -39.512548 28.001191 -26.390963
LeftToeBase 7.336867 -0.000000 -0.000000
RightUpLeg -82.769855 -31.547834 7.508493
RightLeg 83.966596 -0.000000 -0.000000
RightFoot -2.733058 -20.961640 12.569504
RightToeBase 18.139135 -0.000000 -0.000000
1564
root -0.430298 31.625177 -6.513005 -2.350405 -8.472770 -16.370138
Spine 11.968668 -6.817636 3.189925
Head 7.173610 -17.510899 13.974197
LeftShoulder -15.295295 16.255673 15.912742
LeftArm 7.650837 -40.674337 -70.019637
LeftForeArm -4.771540 0.000000 129.492054
LeftHand -20.977262 -0.000000 21.838087
LeftHandThumb1 -26.253704 0.000000 33.147579
RightShoulder -14.375153 -4.142714 -4.945161
RightArm 13.470825 -27.910481 68.913323
RightForeArm -29.713787 -0.000000 25.367936
RightHand -14.074205 -0.000000 11.116664
RightHandThumb1 -24.326973 -0.000000 -32.862282
LeftUpLeg -5.848383 15.794073 4.445902
LeftLeg 28.166904 -0.000000 -0.000000
LeftFoot -39.471512 27.976076 -26.420324
LeftToeBase 7.338326 -0.000000 -0.000000
RightUpLeg -82.660310 -31.571053 7.829487
RightLeg 86.260709 -0.000000 -0.000000
RightFoot -2.715521 -20.812584 12.738591
RightToeBase 18.282661 -0.000000 -0.000000
